<svg width="25" height="25" viewBox="0 0 25 25" fill="none" xmlns="http://www.w3.org/2000/svg">
<path d="M7.27187 5.28271C7.99219 5.28271 8.65781 5.3374 9.26875 5.50147C9.87812 5.61084 10.3797 5.83896 10.825 6.1124C11.2719 6.3874 11.6016 6.77803 11.8266 7.27959C12.0453 7.77959 12.1641 8.39053 12.1641 9.05615C12.1641 9.83115 11.9984 10.4968 11.6078 10.9968C11.2719 11.4968 10.7234 11.9437 10.05 12.2733C10.9969 12.5483 11.7172 13.0483 12.1562 13.714C12.5953 14.3796 12.8766 15.2093 12.8766 16.1562C12.8766 16.9312 12.7125 17.5968 12.4312 18.153C12.1507 18.7129 11.7297 19.1904 11.2094 19.539C10.7094 19.8749 10.0984 20.1483 9.43281 20.314C8.78078 20.4862 8.11024 20.5785 7.43594 20.589L0 20.5999V5.28271H7.27187ZM6.82656 11.4983C7.43594 11.4983 7.93594 11.3343 8.32187 11.053C8.70625 10.7718 8.87656 10.2765 8.87656 9.66709C8.87656 9.32959 8.82187 9.00146 8.7125 8.78115C8.59411 8.55786 8.42235 8.36731 8.2125 8.22646C7.98583 8.10287 7.74355 8.01037 7.49219 7.95147C7.21719 7.89678 6.93594 7.89678 6.60625 7.89678H3.39062V11.5062C3.39062 11.4983 6.82656 11.4983 6.82656 11.4983ZM6.99062 18.0499C7.32656 18.0499 7.65625 17.9952 7.9375 17.9405C8.2125 17.8858 8.49375 17.7749 8.7125 17.603C8.93125 17.4312 9.10312 17.2671 9.26875 16.9937C9.37812 16.7187 9.4875 16.3827 9.4875 15.9921C9.4875 15.2171 9.26875 14.6608 8.82187 14.2702C8.37656 13.9343 7.76562 13.7702 7.04531 13.7702H3.39062V18.0421H6.99219L6.99062 18.0499ZM17.7062 17.9952C18.1531 18.4405 18.8172 18.6608 19.7031 18.6608C20.3125 18.6608 20.8687 18.4952 21.3156 18.214C21.7609 17.878 22.0344 17.5483 22.1437 17.214H24.8625C24.4156 18.5437 23.75 19.4905 22.8656 20.1015C21.9812 20.6562 20.9234 20.9858 19.6469 20.9858C18.8306 20.9895 18.021 20.8384 17.2609 20.5405C16.5769 20.2862 15.9665 19.8664 15.4844 19.3187C14.9701 18.8078 14.5882 18.1792 14.3719 17.4874C14.0984 16.7671 13.9812 15.9921 13.9812 15.0999C13.9812 14.2702 14.0906 13.4874 14.3719 12.7671C14.6531 12.0483 15.0375 11.4358 15.5391 10.8812C16.0391 10.3812 16.65 9.93428 17.3156 9.65928C18.0578 9.36377 18.8496 9.21263 19.6484 9.21396C20.5953 9.21396 21.425 9.37803 22.1453 9.76865C22.8641 10.1593 23.4219 10.5999 23.8672 11.2655C24.3125 11.8749 24.6422 12.5952 24.8687 13.3718C24.9781 14.1468 25.0328 14.928 24.9781 15.814H16.9312C16.9312 16.7202 17.2594 17.5483 17.7062 17.9952ZM21.2062 12.164C20.8156 11.7733 20.2031 11.553 19.4828 11.553C18.9828 11.553 18.5984 11.6624 18.2625 11.828C17.9266 11.9921 17.7062 12.2187 17.4875 12.4374C17.2833 12.6519 17.1473 12.9221 17.0969 13.214C17.0406 13.4874 16.9875 13.714 16.9875 13.9327H21.9812C21.8719 13.1108 21.5922 12.5546 21.2062 12.164ZM16.3203 6.33897H22.5359V7.83428H16.3203V6.33897Z" fill="#19215E"/>
</svg>
