<svg width="26" height="25" viewBox="0 0 26 25" fill="none" xmlns="http://www.w3.org/2000/svg">
<path d="M12.8049 1.95312C10.668 1.95313 8.57914 2.57169 6.80241 3.73059C5.02568 4.8895 3.64089 6.5367 2.82315 8.46389C2.00541 10.3911 1.79146 12.5117 2.20834 14.5576C2.62521 16.6035 3.65421 18.4828 5.16519 19.9578C6.67617 21.4328 8.60128 22.4373 10.6971 22.8442C12.7929 23.2512 14.9652 23.0423 16.9394 22.244C18.9136 21.4458 20.601 20.094 21.7881 18.3595C22.9753 16.6251 23.609 14.586 23.609 12.5C23.6058 9.70375 22.4665 7.02291 20.441 5.04566C18.4155 3.06841 15.6693 1.95623 12.8049 1.95312ZM21.121 11.3281H20.8089C19.4133 11.3289 18.023 11.4948 16.6683 11.8223C16.3746 11.0266 16.0194 10.2539 15.6059 9.51074C16.8112 8.76341 17.9168 7.8728 18.8972 6.85937C20.0954 8.08771 20.8725 9.64942 21.121 11.3281ZM17.0065 5.40039C16.1949 6.21335 15.2883 6.9305 14.3054 7.53711C13.4248 6.38204 12.3968 5.34141 11.2463 4.44043C13.2221 4.07317 15.2673 4.41402 17.0065 5.40039ZM8.55723 5.42676C9.92625 6.29766 11.1395 7.38207 12.1486 8.63672C10.3296 9.38376 8.37581 9.76761 6.40241 9.76562C5.90222 9.76563 5.40203 9.74023 4.90785 9.69238C5.58215 7.90148 6.87144 6.39406 8.55623 5.42676H8.55723ZM4.40165 12.5C4.40165 12.3311 4.40865 12.1641 4.41866 11.998C5.07722 12.0718 5.73954 12.1089 6.40241 12.1094C8.84603 12.1114 11.262 11.6047 13.4891 10.623C13.8347 11.2403 14.133 11.8817 14.3815 12.542C13.6403 12.8323 12.9209 13.173 12.2286 13.5615C10.1173 14.7515 8.2873 16.3635 6.85859 18.292C6.07907 17.5317 5.46083 16.6287 5.03923 15.6349C4.61764 14.641 4.40098 13.5757 4.40165 12.5ZM8.78032 19.6992C10.0138 18.0239 11.5981 16.6238 13.4281 15.5918C13.9451 15.3019 14.4796 15.043 15.0287 14.8164C15.2061 15.7176 15.2956 16.6331 15.2958 17.5508C15.2966 18.5129 15.1994 19.4727 15.0057 20.416C12.914 20.9716 10.6832 20.7147 8.78132 19.6992H8.78032ZM17.6127 19.2217C17.6687 18.667 17.6987 18.1084 17.6987 17.5479C17.698 16.3815 17.5733 15.2184 17.3266 14.0771C18.4666 13.8087 19.6352 13.6727 20.8079 13.6719H21.119C20.9538 14.7817 20.5575 15.8467 19.9545 16.8012C19.3514 17.7557 18.5544 18.5794 17.6127 19.2217Z" fill="#19215E"/>
</svg>
