<svg width="75" height="75" viewBox="0 0 75 75" fill="none" xmlns="http://www.w3.org/2000/svg">
<circle cx="37.5" cy="37.5" r="37.5" fill="#FA67AB"/>
<path d="M54 33.9967C54 43.6295 46.7946 51 37 51C27.2054 51 20 43.6295 20 33.9967C20 24.3639 27.1988 17 37 17C46.8012 17 54 24.3705 54 33.9967ZM49.0046 33.9967C49.0046 26.7246 44.0092 21.6164 37 21.6164C29.9908 21.6164 24.9954 26.7246 24.9954 33.9967C24.9954 41.2689 29.9908 46.3771 37 46.3771C44.0092 46.3771 49.0046 41.2689 49.0046 33.9967Z" fill="white"/>
<path d="M44.11 43.244L37.1948 27.7385L30.0353 43.244L26.4291 51H21L37.393 17L53 51H47.5709L44.1166 43.244H44.11Z" fill="white"/>
</svg>
