<svg width="75" height="75" viewBox="0 0 75 75" fill="none" xmlns="http://www.w3.org/2000/svg">
<circle cx="37.5" cy="37.5" r="37.5" fill="#FA67AB"/>
<path d="M46 36.9967C46 46.6295 38.7946 54 29 54C19.2054 54 12 46.6295 12 36.9967C12 27.3639 19.1988 20 29 20C38.8012 20 46 27.3705 46 36.9967ZM41.0046 36.9967C41.0046 29.7246 36.0092 24.6164 29 24.6164C21.9908 24.6164 16.9954 29.7246 16.9954 36.9967C16.9954 44.2689 21.9908 49.3771 29 49.3771C36.0092 49.3771 41.0046 44.2689 41.0046 36.9967Z" fill="white"/>
<path d="M63 36.9967C63 46.6295 55.7946 54 46 54C36.2054 54 29 46.6295 29 36.9967C29 27.3639 36.1989 20 46 20C55.8012 20 63 27.3705 63 36.9967ZM58.0046 36.9967C58.0046 29.7246 53.0092 24.6164 46 24.6164C38.9908 24.6164 33.9954 29.7246 33.9954 36.9967C33.9954 44.2689 38.9908 49.3771 46 49.3771C53.0092 49.3771 58.0046 44.2689 58.0046 36.9967Z" fill="white"/>
</svg>
