<svg width="133" height="8" viewBox="0 0 133 8" fill="none" xmlns="http://www.w3.org/2000/svg">
<path d="M121.354 4.35355C121.549 4.15829 121.549 3.84171 121.354 3.64645L118.172 0.464466C117.976 0.269204 117.66 0.269204 117.464 0.464466C117.269 0.659728 117.269 0.976311 117.464 1.17157L120.293 4L117.464 6.82843C117.269 7.02369 117.269 7.34027 117.464 7.53553C117.66 7.7308 117.976 7.7308 118.172 7.53553L121.354 4.35355ZM121 3.5H119.054V4.5H121V3.5ZM115.161 3.5L111.268 3.5V4.5H115.161V3.5ZM107.375 3.5L103.482 3.5V4.5H107.375V3.5ZM99.5893 3.5L95.6964 3.5V4.5H99.5893V3.5ZM91.8036 3.5L87.9107 3.5V4.5H91.8036V3.5ZM84.0179 3.5L80.125 3.5V4.5L84.0179 4.5V3.5ZM76.2321 3.5L72.3393 3.5V4.5L76.2321 4.5V3.5ZM68.4464 3.5L64.5536 3.5V4.5L68.4464 4.5V3.5ZM60.6607 3.5L56.7679 3.5V4.5L60.6607 4.5V3.5ZM52.875 3.5L48.9821 3.5V4.5L52.875 4.5V3.5ZM45.0893 3.5L41.1964 3.5V4.5L45.0893 4.5V3.5ZM37.3036 3.5L33.4107 3.5V4.5H37.3036V3.5ZM29.5178 3.5L25.625 3.5V4.5H29.5178V3.5ZM21.7321 3.5L17.8393 3.5V4.5H21.7321V3.5ZM13.9464 3.5H12V4.5H13.9464V3.5Z" fill="#2CB67D"/>
</svg>
