<svg width="67" height="67" viewBox="0 0 67 67" fill="none" xmlns="http://www.w3.org/2000/svg">
<circle cx="33.5" cy="33.5" r="33.5" fill="#69C0AC"/>
<path d="M41 32.677C41 41.5619 34.6423 48.3601 26 48.3601C17.3577 48.3601 11 41.5619 11 32.677C11 23.7922 17.3519 17 26 17C34.6481 17 41 23.7982 41 32.677ZM36.5923 32.677C36.5923 25.9695 32.1846 21.258 26 21.258C19.8154 21.258 15.4077 25.9695 15.4077 32.677C15.4077 39.3845 19.8154 44.0961 26 44.0961C32.1846 44.0961 36.5923 39.3845 36.5923 32.677Z" fill="#011F3F"/>
<path d="M56 32.677C56 41.5619 49.6423 48.3601 41 48.3601C32.3577 48.3601 26 41.5619 26 32.677C26 23.7922 32.3519 17 41 17C49.6481 17 56 23.7982 56 32.677ZM51.5923 32.677C51.5923 25.9695 47.1846 21.258 41 21.258C34.8154 21.258 30.4077 25.9695 30.4077 32.677C30.4077 39.3845 34.8154 44.0961 41 44.0961C47.1846 44.0961 51.5923 39.3845 51.5923 32.677Z" fill="#011F3F"/>
</svg>
