<svg width="25" height="25" viewBox="0 0 25 25" fill="none" xmlns="http://www.w3.org/2000/svg">
<path d="M7.22917 5.2084C7.22889 5.76093 7.00913 6.29073 6.61824 6.68123C6.22734 7.07174 5.69733 7.29097 5.14479 7.29069C4.59226 7.29041 4.06246 7.07066 3.67196 6.67976C3.28145 6.28886 3.06222 5.75885 3.0625 5.20632C3.06278 4.65378 3.28253 4.12399 3.67343 3.73348C4.06433 3.34298 4.59434 3.12375 5.14688 3.12402C5.69941 3.1243 6.2292 3.34406 6.61971 3.73495C7.01021 4.12585 7.22944 4.65586 7.22917 5.2084ZM7.29167 8.8334H3.125V21.8751H7.29167V8.8334ZM13.875 8.8334H9.72917V21.8751H13.8333V15.0313C13.8333 11.2188 18.8021 10.8646 18.8021 15.0313V21.8751H22.9167V13.6146C22.9167 7.18756 15.5625 7.42715 13.8333 10.5834L13.875 8.8334Z" fill="#19215E"/>
</svg>
