<svg width="58" height="43" viewBox="0 0 58 43" fill="none" xmlns="http://www.w3.org/2000/svg">
<path d="M44.3777 3.40826C40.5483 0.522288 36.3557 0 31.5491 0H3V5.06218L8.27538 5.03539H10.5532C13.0886 5.03539 16.7596 5.24297 19.7637 7.44595C22.2462 9.28066 24.4184 12.9032 24.4184 17.5234C24.4184 22.1437 22.0878 25.6591 19.7109 27.4938C16.7067 29.7503 13.1414 29.9579 10.5532 29.9579H8.27538L3 30.045V34.9933H31.4435C36.2567 34.9933 40.0333 34.5179 44.0674 31.6319C48.6165 28.3777 51 23.3423 51 17.5167C51 11.6912 48.5703 6.60226 44.3777 3.40157V3.40826ZM30.3673 27.4938C28.677 28.766 26.8085 29.3821 25.0391 29.6834C28.1092 26.5162 29.7004 22.2843 29.7004 17.5234C29.7004 12.7626 28.0696 8.48383 25.1777 5.33002C26.9274 5.63134 28.7761 6.24067 30.4201 7.44595C32.9026 9.28066 35.0748 12.9032 35.0748 17.5234C35.0748 22.1437 32.7442 25.6591 30.3673 27.4938ZM41.0171 27.4938C39.3268 28.766 37.4583 29.3821 35.6889 29.6834C38.759 26.5162 40.3502 22.2843 40.3502 17.5234C40.3502 12.7626 38.7194 8.48383 35.8275 5.33002C37.5772 5.63134 39.4259 6.24067 41.0699 7.44595C43.5524 9.28066 45.7246 12.9032 45.7246 17.5234C45.7246 22.1437 43.394 25.6591 41.0171 27.4938Z" fill="#19215E"/>
<path d="M8.55236 13.0452H3.34961V18.0471H8.55236V13.0452Z" fill="#19215E"/>
</svg>
